<mxfile host="app.diagrams.net" modified="2024-01-06T17:21:32.693Z" agent="Mozilla/5.0 (Windows NT 10.0; Win64; x64) AppleWebKit/537.36 (KHTML, like Gecko) Chrome/120.0.0.0 Safari/537.36" etag="i_1LqaOVBq9DQMXYwN5t" version="22.1.17" type="device">
  <diagram name="PÃ¡gina-1" id="5qlCxrIBsaDBGqYGp6l_">
    <mxGraphModel dx="3444" dy="778" grid="0" gridSize="10" guides="1" tooltips="1" connect="1" arrows="1" fold="1" page="0" pageScale="1" pageWidth="827" pageHeight="1169" math="0" shadow="0">
      <root>
        <mxCell id="0" />
        <mxCell id="1" parent="0" />
        <mxCell id="0ueKeHMAOje2GEvIfXx1-1" value="withdrawals" style="shape=table;startSize=30;container=1;collapsible=1;childLayout=tableLayout;fixedRows=1;rowLines=0;fontStyle=1;align=center;resizeLast=1;html=1;whiteSpace=wrap;fontSize=16;" vertex="1" parent="1">
          <mxGeometry x="-1606" y="13" width="481.41668701171875" height="211.83340454101562" as="geometry">
            <mxRectangle x="-225" y="30" width="76" height="31" as="alternateBounds" />
          </mxGeometry>
        </mxCell>
        <mxCell id="0ueKeHMAOje2GEvIfXx1-5" value="" style="shape=tableRow;horizontal=0;startSize=0;swimlaneHead=0;swimlaneBody=0;fillColor=none;collapsible=0;dropTarget=0;points=[[0,0.5],[1,0.5]];portConstraint=eastwest;top=0;left=0;right=0;bottom=1;html=1;fontSize=16;" vertex="1" parent="0ueKeHMAOje2GEvIfXx1-1">
          <mxGeometry y="30" width="481.41668701171875" height="37" as="geometry" />
        </mxCell>
        <mxCell id="0ueKeHMAOje2GEvIfXx1-6" value="PK" style="shape=partialRectangle;connectable=0;fillColor=none;top=0;left=0;bottom=0;right=0;fontStyle=1;overflow=hidden;html=1;whiteSpace=wrap;fontSize=16;" vertex="1" parent="0ueKeHMAOje2GEvIfXx1-5">
          <mxGeometry width="40.75" height="37" as="geometry">
            <mxRectangle width="40.75" height="37" as="alternateBounds" />
          </mxGeometry>
        </mxCell>
        <mxCell id="0ueKeHMAOje2GEvIfXx1-7" value="id BIGINIT UNSIGNED NOT NULL AUTO INCREMENT&amp;nbsp;" style="shape=partialRectangle;connectable=0;fillColor=none;top=0;left=0;bottom=0;right=0;align=left;spacingLeft=6;fontStyle=5;overflow=hidden;html=1;whiteSpace=wrap;fontSize=16;" vertex="1" parent="0ueKeHMAOje2GEvIfXx1-5">
          <mxGeometry x="40.75" width="440.66668701171875" height="37" as="geometry">
            <mxRectangle width="440.66668701171875" height="37" as="alternateBounds" />
          </mxGeometry>
        </mxCell>
        <mxCell id="0ueKeHMAOje2GEvIfXx1-8" value="" style="shape=tableRow;horizontal=0;startSize=0;swimlaneHead=0;swimlaneBody=0;fillColor=none;collapsible=0;dropTarget=0;points=[[0,0.5],[1,0.5]];portConstraint=eastwest;top=0;left=0;right=0;bottom=0;html=1;fontSize=16;" vertex="1" parent="0ueKeHMAOje2GEvIfXx1-1">
          <mxGeometry y="67" width="481.41668701171875" height="26" as="geometry" />
        </mxCell>
        <mxCell id="0ueKeHMAOje2GEvIfXx1-9" value="" style="shape=partialRectangle;connectable=0;fillColor=none;top=0;left=0;bottom=0;right=0;editable=1;overflow=hidden;html=1;whiteSpace=wrap;fontSize=16;" vertex="1" parent="0ueKeHMAOje2GEvIfXx1-8">
          <mxGeometry width="40.75" height="26" as="geometry">
            <mxRectangle width="40.75" height="26" as="alternateBounds" />
          </mxGeometry>
        </mxCell>
        <mxCell id="0ueKeHMAOje2GEvIfXx1-10" value="payment_methot TINYINT(1) NOT NUT" style="shape=partialRectangle;connectable=0;fillColor=none;top=0;left=0;bottom=0;right=0;align=left;spacingLeft=6;overflow=hidden;html=1;whiteSpace=wrap;fontSize=16;" vertex="1" parent="0ueKeHMAOje2GEvIfXx1-8">
          <mxGeometry x="40.75" width="440.66668701171875" height="26" as="geometry">
            <mxRectangle width="440.66668701171875" height="26" as="alternateBounds" />
          </mxGeometry>
        </mxCell>
        <mxCell id="0ueKeHMAOje2GEvIfXx1-11" value="" style="shape=tableRow;horizontal=0;startSize=0;swimlaneHead=0;swimlaneBody=0;fillColor=none;collapsible=0;dropTarget=0;points=[[0,0.5],[1,0.5]];portConstraint=eastwest;top=0;left=0;right=0;bottom=0;html=1;fontSize=16;" vertex="1" parent="0ueKeHMAOje2GEvIfXx1-1">
          <mxGeometry y="93" width="481.41668701171875" height="28" as="geometry" />
        </mxCell>
        <mxCell id="0ueKeHMAOje2GEvIfXx1-12" value="" style="shape=partialRectangle;connectable=0;fillColor=none;top=0;left=0;bottom=0;right=0;editable=1;overflow=hidden;html=1;whiteSpace=wrap;fontSize=16;" vertex="1" parent="0ueKeHMAOje2GEvIfXx1-11">
          <mxGeometry width="40.75" height="28" as="geometry">
            <mxRectangle width="40.75" height="28" as="alternateBounds" />
          </mxGeometry>
        </mxCell>
        <mxCell id="0ueKeHMAOje2GEvIfXx1-13" value="type TINYINT(1) NOT NULL" style="shape=partialRectangle;connectable=0;fillColor=none;top=0;left=0;bottom=0;right=0;align=left;spacingLeft=6;overflow=hidden;html=1;whiteSpace=wrap;fontSize=16;" vertex="1" parent="0ueKeHMAOje2GEvIfXx1-11">
          <mxGeometry x="40.75" width="440.66668701171875" height="28" as="geometry">
            <mxRectangle width="440.66668701171875" height="28" as="alternateBounds" />
          </mxGeometry>
        </mxCell>
        <mxCell id="0ueKeHMAOje2GEvIfXx1-17" value="" style="shape=tableRow;horizontal=0;startSize=0;swimlaneHead=0;swimlaneBody=0;fillColor=none;collapsible=0;dropTarget=0;points=[[0,0.5],[1,0.5]];portConstraint=eastwest;top=0;left=0;right=0;bottom=0;html=1;fontSize=16;" vertex="1" parent="0ueKeHMAOje2GEvIfXx1-1">
          <mxGeometry y="121" width="481.41668701171875" height="30" as="geometry" />
        </mxCell>
        <mxCell id="0ueKeHMAOje2GEvIfXx1-18" value="" style="shape=partialRectangle;connectable=0;fillColor=none;top=0;left=0;bottom=0;right=0;editable=1;overflow=hidden;html=1;whiteSpace=wrap;fontSize=16;" vertex="1" parent="0ueKeHMAOje2GEvIfXx1-17">
          <mxGeometry width="40.75" height="30" as="geometry">
            <mxRectangle width="40.75" height="30" as="alternateBounds" />
          </mxGeometry>
        </mxCell>
        <mxCell id="0ueKeHMAOje2GEvIfXx1-19" value="date TIMESTAMP NOT NULL" style="shape=partialRectangle;connectable=0;fillColor=none;top=0;left=0;bottom=0;right=0;align=left;spacingLeft=6;overflow=hidden;html=1;whiteSpace=wrap;fontSize=16;" vertex="1" parent="0ueKeHMAOje2GEvIfXx1-17">
          <mxGeometry x="40.75" width="440.66668701171875" height="30" as="geometry">
            <mxRectangle width="440.66668701171875" height="30" as="alternateBounds" />
          </mxGeometry>
        </mxCell>
        <mxCell id="0ueKeHMAOje2GEvIfXx1-20" value="" style="shape=tableRow;horizontal=0;startSize=0;swimlaneHead=0;swimlaneBody=0;fillColor=none;collapsible=0;dropTarget=0;points=[[0,0.5],[1,0.5]];portConstraint=eastwest;top=0;left=0;right=0;bottom=0;html=1;fontSize=16;" vertex="1" parent="0ueKeHMAOje2GEvIfXx1-1">
          <mxGeometry y="151" width="481.41668701171875" height="30" as="geometry" />
        </mxCell>
        <mxCell id="0ueKeHMAOje2GEvIfXx1-21" value="" style="shape=partialRectangle;connectable=0;fillColor=none;top=0;left=0;bottom=0;right=0;editable=1;overflow=hidden;html=1;whiteSpace=wrap;fontSize=16;" vertex="1" parent="0ueKeHMAOje2GEvIfXx1-20">
          <mxGeometry width="40.75" height="30" as="geometry">
            <mxRectangle width="40.75" height="30" as="alternateBounds" />
          </mxGeometry>
        </mxCell>
        <mxCell id="0ueKeHMAOje2GEvIfXx1-22" value="amount FLOAT NOT NULL" style="shape=partialRectangle;connectable=0;fillColor=none;top=0;left=0;bottom=0;right=0;align=left;spacingLeft=6;overflow=hidden;html=1;whiteSpace=wrap;fontSize=16;" vertex="1" parent="0ueKeHMAOje2GEvIfXx1-20">
          <mxGeometry x="40.75" width="440.66668701171875" height="30" as="geometry">
            <mxRectangle width="440.66668701171875" height="30" as="alternateBounds" />
          </mxGeometry>
        </mxCell>
        <mxCell id="0ueKeHMAOje2GEvIfXx1-23" value="" style="shape=tableRow;horizontal=0;startSize=0;swimlaneHead=0;swimlaneBody=0;fillColor=none;collapsible=0;dropTarget=0;points=[[0,0.5],[1,0.5]];portConstraint=eastwest;top=0;left=0;right=0;bottom=0;html=1;fontSize=16;" vertex="1" parent="0ueKeHMAOje2GEvIfXx1-1">
          <mxGeometry y="181" width="481.41668701171875" height="30" as="geometry" />
        </mxCell>
        <mxCell id="0ueKeHMAOje2GEvIfXx1-24" value="" style="shape=partialRectangle;connectable=0;fillColor=none;top=0;left=0;bottom=0;right=0;editable=1;overflow=hidden;html=1;whiteSpace=wrap;fontSize=16;" vertex="1" parent="0ueKeHMAOje2GEvIfXx1-23">
          <mxGeometry width="40.75" height="30" as="geometry">
            <mxRectangle width="40.75" height="30" as="alternateBounds" />
          </mxGeometry>
        </mxCell>
        <mxCell id="0ueKeHMAOje2GEvIfXx1-25" value="description TEXT NOT NULL" style="shape=partialRectangle;connectable=0;fillColor=none;top=0;left=0;bottom=0;right=0;align=left;spacingLeft=6;overflow=hidden;html=1;whiteSpace=wrap;fontSize=16;" vertex="1" parent="0ueKeHMAOje2GEvIfXx1-23">
          <mxGeometry x="40.75" width="440.66668701171875" height="30" as="geometry">
            <mxRectangle width="440.66668701171875" height="30" as="alternateBounds" />
          </mxGeometry>
        </mxCell>
        <mxCell id="0ueKeHMAOje2GEvIfXx1-29" value="incomes" style="shape=table;startSize=28;container=1;collapsible=1;childLayout=tableLayout;fixedRows=1;rowLines=0;fontStyle=1;align=center;resizeLast=1;html=1;whiteSpace=wrap;fontSize=16;" vertex="1" parent="1">
          <mxGeometry x="-1056" y="13" width="481.41668701171875" height="211.83340454101562" as="geometry">
            <mxRectangle x="-225" y="30" width="76" height="31" as="alternateBounds" />
          </mxGeometry>
        </mxCell>
        <mxCell id="0ueKeHMAOje2GEvIfXx1-30" value="" style="shape=tableRow;horizontal=0;startSize=0;swimlaneHead=0;swimlaneBody=0;fillColor=none;collapsible=0;dropTarget=0;points=[[0,0.5],[1,0.5]];portConstraint=eastwest;top=0;left=0;right=0;bottom=1;html=1;fontSize=16;" vertex="1" parent="0ueKeHMAOje2GEvIfXx1-29">
          <mxGeometry y="28" width="481.41668701171875" height="37" as="geometry" />
        </mxCell>
        <mxCell id="0ueKeHMAOje2GEvIfXx1-31" value="PK" style="shape=partialRectangle;connectable=0;fillColor=none;top=0;left=0;bottom=0;right=0;fontStyle=1;overflow=hidden;html=1;whiteSpace=wrap;fontSize=16;" vertex="1" parent="0ueKeHMAOje2GEvIfXx1-30">
          <mxGeometry width="40.75" height="37" as="geometry">
            <mxRectangle width="40.75" height="37" as="alternateBounds" />
          </mxGeometry>
        </mxCell>
        <mxCell id="0ueKeHMAOje2GEvIfXx1-32" value="id BIGINIT UNSIGNED NOT NULL AUTO INCREMENT&amp;nbsp;" style="shape=partialRectangle;connectable=0;fillColor=none;top=0;left=0;bottom=0;right=0;align=left;spacingLeft=6;fontStyle=5;overflow=hidden;html=1;whiteSpace=wrap;fontSize=16;" vertex="1" parent="0ueKeHMAOje2GEvIfXx1-30">
          <mxGeometry x="40.75" width="440.66668701171875" height="37" as="geometry">
            <mxRectangle width="440.66668701171875" height="37" as="alternateBounds" />
          </mxGeometry>
        </mxCell>
        <mxCell id="0ueKeHMAOje2GEvIfXx1-33" value="" style="shape=tableRow;horizontal=0;startSize=0;swimlaneHead=0;swimlaneBody=0;fillColor=none;collapsible=0;dropTarget=0;points=[[0,0.5],[1,0.5]];portConstraint=eastwest;top=0;left=0;right=0;bottom=0;html=1;fontSize=16;" vertex="1" parent="0ueKeHMAOje2GEvIfXx1-29">
          <mxGeometry y="65" width="481.41668701171875" height="26" as="geometry" />
        </mxCell>
        <mxCell id="0ueKeHMAOje2GEvIfXx1-34" value="" style="shape=partialRectangle;connectable=0;fillColor=none;top=0;left=0;bottom=0;right=0;editable=1;overflow=hidden;html=1;whiteSpace=wrap;fontSize=16;" vertex="1" parent="0ueKeHMAOje2GEvIfXx1-33">
          <mxGeometry width="40.75" height="26" as="geometry">
            <mxRectangle width="40.75" height="26" as="alternateBounds" />
          </mxGeometry>
        </mxCell>
        <mxCell id="0ueKeHMAOje2GEvIfXx1-35" value="payment_methot TINYINT(1) NOT NUT" style="shape=partialRectangle;connectable=0;fillColor=none;top=0;left=0;bottom=0;right=0;align=left;spacingLeft=6;overflow=hidden;html=1;whiteSpace=wrap;fontSize=16;" vertex="1" parent="0ueKeHMAOje2GEvIfXx1-33">
          <mxGeometry x="40.75" width="440.66668701171875" height="26" as="geometry">
            <mxRectangle width="440.66668701171875" height="26" as="alternateBounds" />
          </mxGeometry>
        </mxCell>
        <mxCell id="0ueKeHMAOje2GEvIfXx1-36" value="" style="shape=tableRow;horizontal=0;startSize=0;swimlaneHead=0;swimlaneBody=0;fillColor=none;collapsible=0;dropTarget=0;points=[[0,0.5],[1,0.5]];portConstraint=eastwest;top=0;left=0;right=0;bottom=0;html=1;fontSize=16;" vertex="1" parent="0ueKeHMAOje2GEvIfXx1-29">
          <mxGeometry y="91" width="481.41668701171875" height="28" as="geometry" />
        </mxCell>
        <mxCell id="0ueKeHMAOje2GEvIfXx1-37" value="" style="shape=partialRectangle;connectable=0;fillColor=none;top=0;left=0;bottom=0;right=0;editable=1;overflow=hidden;html=1;whiteSpace=wrap;fontSize=16;" vertex="1" parent="0ueKeHMAOje2GEvIfXx1-36">
          <mxGeometry width="40.75" height="28" as="geometry">
            <mxRectangle width="40.75" height="28" as="alternateBounds" />
          </mxGeometry>
        </mxCell>
        <mxCell id="0ueKeHMAOje2GEvIfXx1-38" value="type TINYINT(1) NOT NULL" style="shape=partialRectangle;connectable=0;fillColor=none;top=0;left=0;bottom=0;right=0;align=left;spacingLeft=6;overflow=hidden;html=1;whiteSpace=wrap;fontSize=16;" vertex="1" parent="0ueKeHMAOje2GEvIfXx1-36">
          <mxGeometry x="40.75" width="440.66668701171875" height="28" as="geometry">
            <mxRectangle width="440.66668701171875" height="28" as="alternateBounds" />
          </mxGeometry>
        </mxCell>
        <mxCell id="0ueKeHMAOje2GEvIfXx1-39" value="" style="shape=tableRow;horizontal=0;startSize=0;swimlaneHead=0;swimlaneBody=0;fillColor=none;collapsible=0;dropTarget=0;points=[[0,0.5],[1,0.5]];portConstraint=eastwest;top=0;left=0;right=0;bottom=0;html=1;fontSize=16;" vertex="1" parent="0ueKeHMAOje2GEvIfXx1-29">
          <mxGeometry y="119" width="481.41668701171875" height="30" as="geometry" />
        </mxCell>
        <mxCell id="0ueKeHMAOje2GEvIfXx1-40" value="" style="shape=partialRectangle;connectable=0;fillColor=none;top=0;left=0;bottom=0;right=0;editable=1;overflow=hidden;html=1;whiteSpace=wrap;fontSize=16;" vertex="1" parent="0ueKeHMAOje2GEvIfXx1-39">
          <mxGeometry width="40.75" height="30" as="geometry">
            <mxRectangle width="40.75" height="30" as="alternateBounds" />
          </mxGeometry>
        </mxCell>
        <mxCell id="0ueKeHMAOje2GEvIfXx1-41" value="date TIMESTAMP NOT NULL" style="shape=partialRectangle;connectable=0;fillColor=none;top=0;left=0;bottom=0;right=0;align=left;spacingLeft=6;overflow=hidden;html=1;whiteSpace=wrap;fontSize=16;" vertex="1" parent="0ueKeHMAOje2GEvIfXx1-39">
          <mxGeometry x="40.75" width="440.66668701171875" height="30" as="geometry">
            <mxRectangle width="440.66668701171875" height="30" as="alternateBounds" />
          </mxGeometry>
        </mxCell>
        <mxCell id="0ueKeHMAOje2GEvIfXx1-42" value="" style="shape=tableRow;horizontal=0;startSize=0;swimlaneHead=0;swimlaneBody=0;fillColor=none;collapsible=0;dropTarget=0;points=[[0,0.5],[1,0.5]];portConstraint=eastwest;top=0;left=0;right=0;bottom=0;html=1;fontSize=16;" vertex="1" parent="0ueKeHMAOje2GEvIfXx1-29">
          <mxGeometry y="149" width="481.41668701171875" height="30" as="geometry" />
        </mxCell>
        <mxCell id="0ueKeHMAOje2GEvIfXx1-43" value="" style="shape=partialRectangle;connectable=0;fillColor=none;top=0;left=0;bottom=0;right=0;editable=1;overflow=hidden;html=1;whiteSpace=wrap;fontSize=16;" vertex="1" parent="0ueKeHMAOje2GEvIfXx1-42">
          <mxGeometry width="40.75" height="30" as="geometry">
            <mxRectangle width="40.75" height="30" as="alternateBounds" />
          </mxGeometry>
        </mxCell>
        <mxCell id="0ueKeHMAOje2GEvIfXx1-44" value="amount FLOAT NOT NULL" style="shape=partialRectangle;connectable=0;fillColor=none;top=0;left=0;bottom=0;right=0;align=left;spacingLeft=6;overflow=hidden;html=1;whiteSpace=wrap;fontSize=16;" vertex="1" parent="0ueKeHMAOje2GEvIfXx1-42">
          <mxGeometry x="40.75" width="440.66668701171875" height="30" as="geometry">
            <mxRectangle width="440.66668701171875" height="30" as="alternateBounds" />
          </mxGeometry>
        </mxCell>
        <mxCell id="0ueKeHMAOje2GEvIfXx1-45" value="" style="shape=tableRow;horizontal=0;startSize=0;swimlaneHead=0;swimlaneBody=0;fillColor=none;collapsible=0;dropTarget=0;points=[[0,0.5],[1,0.5]];portConstraint=eastwest;top=0;left=0;right=0;bottom=0;html=1;fontSize=16;" vertex="1" parent="0ueKeHMAOje2GEvIfXx1-29">
          <mxGeometry y="179" width="481.41668701171875" height="30" as="geometry" />
        </mxCell>
        <mxCell id="0ueKeHMAOje2GEvIfXx1-46" value="" style="shape=partialRectangle;connectable=0;fillColor=none;top=0;left=0;bottom=0;right=0;editable=1;overflow=hidden;html=1;whiteSpace=wrap;fontSize=16;" vertex="1" parent="0ueKeHMAOje2GEvIfXx1-45">
          <mxGeometry width="40.75" height="30" as="geometry">
            <mxRectangle width="40.75" height="30" as="alternateBounds" />
          </mxGeometry>
        </mxCell>
        <mxCell id="0ueKeHMAOje2GEvIfXx1-47" value="description TEXT NOT NULL" style="shape=partialRectangle;connectable=0;fillColor=none;top=0;left=0;bottom=0;right=0;align=left;spacingLeft=6;overflow=hidden;html=1;whiteSpace=wrap;fontSize=16;" vertex="1" parent="0ueKeHMAOje2GEvIfXx1-45">
          <mxGeometry x="40.75" width="440.66668701171875" height="30" as="geometry">
            <mxRectangle width="440.66668701171875" height="30" as="alternateBounds" />
          </mxGeometry>
        </mxCell>
      </root>
    </mxGraphModel>
  </diagram>
</mxfile>
